<svg xmlns="http://www.w3.org/2000/svg" width="132.74" height="131.96" viewBox="0 0 132.74 131.96">
  <defs>
    <style>
      .cls-1 {
        fill: #fff5fb;
        fill-rule: evenodd;
      }
    </style>
  </defs>
  <path id="Shape_17_copy" data-name="Shape 17 copy" class="cls-1" d="M1177.33,1314.3c-3.94-3.46-4.92-4.23-3.94-10.07,6.33-37.79,1.9-48.58-24.09-32.11-13.03,8.26-15.51,15.77-29.95,6.63-10.93-6.93-28.39-15.82-32.88-1.69-3.84,12.05,16.81,32.75,10.36,37.77-9.27,7.52-16.17,14.36-20.74,20.04-21.9,27.13,20.02,18.51,33.08,17.46,1.65-.13,3.48-0.25,4.86.84q4.275,3.36,10.8,27.11,3.555,11.79,8.5,15.08c4.91,3.25,8.63-.34,11.83-4.19q9.18-11.07,11.56-34.4c0.39-4.59,1.64-4.83,5.72-4.27,10.09,1.4,28.42,9.86,39.17-2.67C1205.8,1343.06,1197.21,1331.71,1177.33,1314.3Zm-22.66,31.43c-2.6-.28-4.02,1.1-4.27,4.12q-3.42,22.68-12.28,26.07-9.015.36-16.01-29.51-1.26-3.3-6.4-.88-24.24,6.6-26.96-4.02-0.8-7.575,18.87-22.19,2.97-2.925-.28-7.16-12.1-18.42-3.85-24.48,6.33-3.36,25.01,6.99a6.585,6.585,0,0,0,3.98,1.03c4.08-.22,8.64-3.61,13-6.87,7.05-5.27,13.02-6.31,15.74-4.5,9.79,6.51-5.15,27.4,2.25,32.23q21.975,16.185,18.66,25.59Q1178.29,1352.215,1154.67,1345.73Z" transform="translate(-1069.88 -1264.66)"/>
</svg>
