<svg xmlns="http://www.w3.org/2000/svg" width="102.84" height="105.81" viewBox="0 0 102.84 105.81">
  <defs>
    <style>
      .cls-1 {
        fill: #f4f3fe;
        fill-rule: evenodd;
      }
    </style>
  </defs>
  <path id="steluta_mov" data-name="steluta mov" class="cls-1" d="M1224.92,2875.55c-3.05-2.77-3.81-3.39-3.05-8.07,4.9-30.29,1.47-38.94-18.65-25.74-10.1,6.62-12.01,12.64-23.19,5.31-8.47-5.55-21.99-12.67-25.47-1.35-2.96,9.66,13.02,26.26,8.02,30.27a111.623,111.623,0,0,0-16.05,16.07c-16.96,21.75,15.5,14.83,25.62,14,1.27-.11,2.69-0.21,3.76.67q3.315,2.7,8.36,21.72,2.76,9.465,6.58,12.09c3.81,2.61,6.69-.27,9.16-3.35q7.11-8.88,8.95-27.58c0.31-3.68,1.27-3.87,4.43-3.42,7.82,1.12,22.01,7.91,30.33-2.14C1246.97,2898.61,1240.32,2889.51,1224.92,2875.55Zm-17.55,25.2c-2-.23-3.11.88-3.3,3.3q-2.655,18.18-9.51,20.89-6.975.3-12.4-23.65c-0.65-1.77-2.3-2-4.95-.71q-18.78,5.3-20.88-3.22-0.615-6.075,14.61-17.78,2.3-2.355-.21-5.74-9.375-14.775-2.98-19.62,4.89-2.7,19.36,5.59a4.882,4.882,0,0,0,3.08.83c3.16-.17,6.69-2.89,10.07-5.5,5.46-4.23,10.08-5.06,12.19-3.61,7.58,5.22-3.99,21.96,1.74,25.83q17.025,12.975,14.45,20.51Q1225.655,2905.94,1207.37,2900.75Z" transform="translate(-1141.69 -2835.75)"/>
</svg>
